# xmcd
#
# Track frame offsets:
#	150
#	29625
#	50328
#	73907
#	87397
#	112281
#	136302
#	151718
#	173741
#	196259
#	219443
#	238647
#
# Disc length: 3509 seconds
#
# Revision: 0
# Processed by: cddbd v1.5.1PL2 Copyright (c) Steve Scherf et al.
# Submitted via: dBpowerAMP V4.0
#
DISCID=aa0db30c
DTITLE=Michael Houser - Sandbox
DYEAR=2005
DGENRE=Blues
TTITLE0=No Matter What
TTITLE1=Goodbye My Love
TTITLE2=Sandbox
TTITLE3=Can't Change The Past
TTITLE4=Low Country
TTITLE5=Where Does it Go
TTITLE6=Nacoochee Queen
TTITLE7=Country Sex Song
TTITLE8=Solitude
TTITLE9=Bull Run
TTITLE10=No Cryin Now
TTITLE11=She Drives Me To Drink
EXTD=
EXTT0=
EXTT1=
EXTT2=
EXTT3=
EXTT4=
EXTT5=
EXTT6=
EXTT7=
EXTT8=
EXTT9=
EXTT10=
EXTT11=
PLAYORDER=
